<svg width="20" height="20" viewBox="0 0 20 20" fill="none" xmlns="http://www.w3.org/2000/svg">
<path d="M19.4049 12.1108C20.8518 5.6098 15.1558 -0.296061 8.46658 0.837664C4.83519 -1.41563 0 1.13067 0 5.45081C0 6.45551 0.277224 7.39612 0.759245 8.20687C-0.585251 14.7229 5.15737 20.5438 11.8407 19.3327C16.5652 21.8307 21.7858 16.8488 19.4049 12.1108ZM13.0462 16.0314C11.2913 16.7531 8.40331 16.7573 6.65588 15.8425C4.16419 14.5139 3.7213 11.5231 5.87083 11.5231C7.49088 11.5231 6.97806 13.4119 8.61393 14.1818C9.36485 14.5289 10.9791 14.5647 11.9173 13.9321C12.8439 13.312 12.759 12.3364 12.2553 11.8703C10.9208 10.6383 7.1021 11.1278 5.35634 8.97101C4.59793 8.0354 4.45474 6.38476 5.38714 5.18777C7.01219 3.09679 11.7808 2.96943 13.8312 4.54849C15.7244 6.01351 15.2132 7.95799 13.6856 7.95799C11.8482 7.95799 12.8139 5.55402 9.84771 5.55402C7.69735 5.55402 6.85152 7.08314 8.36585 7.8273C10.4188 8.84699 15.6503 8.50654 15.6503 12.4912C15.6461 14.1494 14.6296 15.3855 13.0462 16.0314Z" fill="#276ED8"/>
</svg>
