<svg width="517" height="409" viewBox="0 0 517 409" fill="none" xmlns="http://www.w3.org/2000/svg">
<path opacity="0.04" d="M102.537 308.542C66.1802 376.883 316.754 383.817 370.537 359.042C424.32 334.267 435.85 239.878 417.037 209.542C411.17 200.137 489.495 265.055 486.037 254.266C478.506 230.66 489.266 124.804 476.037 104.542C464.601 87.0033 354.49 118.603 339.537 104.542C332.988 98.4581 265.037 12.0422 184.037 25.0422C124.862 34.5394 47.5398 87.8506 31.5367 131.042C15.5335 174.234 169.036 183.542 102.537 308.542Z" fill="#276ED8"/>
<path opacity="0.2" d="M205.603 138.049L220 135.341V122.433L205.603 119.951C204.498 114.648 202.399 109.684 199.511 105.284L207.77 93.1663L198.631 84.0273L186.694 92.4667C182.293 89.5784 177.352 87.5024 172.026 86.3967L169.318 72H156.411L153.929 86.3967C148.626 87.5024 143.662 89.6009 139.261 92.4893L127.166 84.2304L118.027 93.3694L126.467 105.306C123.578 109.707 121.502 114.671 120.397 119.974L106 122.682V135.589L120.397 138.071C121.502 143.397 123.601 148.338 126.489 152.739L118.23 164.834L127.369 173.973L139.329 165.533C143.729 168.422 148.694 170.52 153.996 171.603L156.704 186H169.612L172.094 171.603C177.419 170.498 182.361 168.399 186.761 165.511L198.856 173.77L207.995 164.631L199.556 152.694C202.422 148.316 204.498 143.374 205.603 138.049ZM163 155.74C148.242 155.74 136.283 143.758 136.283 129.023C136.283 114.287 148.242 102.305 163 102.305C177.758 102.305 189.717 114.265 189.717 129.023C189.717 143.78 177.758 155.74 163 155.74Z" fill="#84B5FF"/>
<path d="M372.67 133.3V266.29C372.67 269.71 369.9 272.48 366.48 272.48H163.68C160.26 272.48 157.49 269.71 157.49 266.29V133.3C157.49 125.41 163.89 119 171.79 119H358.37C366.27 119 372.67 125.41 372.67 133.3Z" fill="white" stroke="#84B5FF" stroke-miterlimit="10"/>
<path d="M257.141 150.812H233.004V152.84H257.141V150.812Z" fill="#84B5FF"/>
<path d="M285.451 150.812H261.314V152.84H285.451V150.812Z" fill="#06B25F"/>
<path d="M277.888 161.758H240.461V163.786H277.888V161.758Z" fill="#276ED8"/>
<path d="M303.092 161.758H284.072V163.786H303.092V161.758Z" fill="#84B5FF"/>
<path d="M269.872 172.69H253.438V174.718H269.872V172.69Z" fill="#06B25F"/>
<path d="M333.899 172.69H279.373V174.718H333.899V172.69Z" fill="#06B25F"/>
<path d="M328.52 183.631H266.205V185.659H328.52V183.631Z" fill="#276ED8"/>
<path d="M269.802 194.563H250.625V196.592H269.802V194.563Z" fill="#84B5FF"/>
<path d="M297.186 194.563H278.01V196.592H297.186V194.563Z" fill="#276ED8"/>
<path d="M260.896 251.323H233.004V253.351H260.896V251.323Z" fill="#84B5FF"/>
<path d="M298.55 251.323H270.658V253.351H298.55V251.323Z" fill="#06B25F"/>
<path d="M335.208 251.323H307.316V253.351H335.208V251.323Z" fill="#84B5FF"/>
<path d="M294.989 240.373H240.463V242.401H294.989V240.373Z" fill="#276ED8"/>
<path d="M358 240.373H303.475V242.401H358V240.373Z" fill="#84B5FF"/>
<path d="M307.544 229.443H253.438V231.472H307.544V229.443Z" fill="#84B5FF"/>
<path d="M327.315 229.443H312.26V231.472H327.315V229.443Z" fill="#06B25F"/>
<path d="M270.274 218.499H249.91V220.527H270.274V218.499Z" fill="#06B25F"/>
<path d="M301.448 218.499H281.084V220.527H301.448V218.499Z" fill="#276ED8"/>
<path d="M334.931 218.499H314.566V220.527H334.931V218.499Z" fill="#84B5FF"/>
<path d="M302.079 207.571H273.523V209.6H302.079V207.571Z" fill="#06B25F"/>
<path d="M262.747 207.571H234.191V209.6H262.747V207.571Z" fill="#276ED8"/>
<path d="M226.278 148.872H223.676V151.477H226.278V148.872Z" fill="#84B5FF"/>
<path d="M226.278 244.24H223.676V238.942H226.278V244.24ZM226.278 230.986H223.676V225.687H226.278V230.986ZM226.278 217.731H223.676V212.433H226.278V217.731ZM226.278 204.477H223.676V199.179H226.278V204.477ZM226.278 191.223H223.676V185.925H226.278V191.223ZM226.278 177.969H223.676V172.67H226.278V177.969ZM226.278 164.714H223.676V159.416H226.278V164.714Z" fill="#84B5FF"/>
<path d="M226.278 252.194H223.676V254.8H226.278V252.194Z" fill="#84B5FF"/>
<path opacity="0.7" d="M157 135.49C157 132.177 159.686 129.49 163 129.49H213V272.49H163C159.686 272.49 157 269.804 157 266.49V135.49Z" fill="#84B5FF"/>
<path d="M185.615 152.813H161.479V154.842H185.615V152.813Z" fill="#06B25F"/>
<path d="M204.09 165.208H166.662V167.236H204.09V165.208Z" fill="#84B5FF"/>
<path d="M204.09 177.604H166.662V179.632H204.09V177.604Z" fill="#84B5FF"/>
<path d="M204.09 190H166.662V192.028H204.09V190Z" fill="#84B5FF"/>
<path d="M204.09 202.393H166.662V204.421H204.09V202.393Z" fill="#84B5FF"/>
<path d="M206.033 227.182H168.605V229.21H206.033V227.182Z" fill="#84B5FF"/>
<path d="M206.033 239.579H168.605V241.607H206.033V239.579Z" fill="#84B5FF"/>
<path d="M206.033 251.971H168.605V253.999H206.033V251.971Z" fill="#84B5FF"/>
<path d="M185.615 214.787H161.479V216.815H185.615V214.787Z" fill="#06B25F"/>
<path d="M372.67 133.3V133.9H157.49V133.3C157.49 125.41 163.89 119 171.79 119H358.37C366.27 119 372.67 125.41 372.67 133.3Z" fill="#84B5FF"/>
<path opacity="0.3" d="M339.99 127.14C339.99 128.17 339.16 129 338.13 129C337.1 129 336.27 128.17 336.27 127.14C336.27 126.11 337.1 125.28 338.13 125.28C339.15 125.28 339.99 126.11 339.99 127.14Z" fill="white"/>
<path opacity="0.3" d="M350.169 127.14C350.169 128.17 349.339 129 348.309 129C347.279 129 346.449 128.17 346.449 127.14C346.449 126.11 347.279 125.28 348.309 125.28C349.329 125.28 350.169 126.11 350.169 127.14Z" fill="white"/>
<path opacity="0.3" d="M359.9 127.14C359.9 128.17 359.07 129 358.04 129C357.01 129 356.18 128.17 356.18 127.14C356.18 126.11 357.01 125.28 358.04 125.28C359.07 125.28 359.9 126.11 359.9 127.14Z" fill="white"/>
<path d="M372.67 133.3V266.29C372.67 269.71 369.9 272.48 366.48 272.48H163.68C160.26 272.48 157.49 269.71 157.49 266.29V133.3C157.49 125.41 163.89 119 171.79 119H358.37C366.27 119 372.67 125.41 372.67 133.3Z" stroke="#84B5FF" stroke-miterlimit="10"/>
<path d="M282.89 314C271.903 314 263 322.903 263 333.89C263 344.876 271.903 353.779 282.89 353.779C293.876 353.779 302.779 344.876 302.779 333.89C302.779 322.903 293.876 314 282.89 314ZM282.89 348.823C274.633 348.823 267.946 342.136 267.946 333.88C267.946 325.624 274.633 318.937 282.89 318.937C291.146 318.937 297.833 325.624 297.833 333.88C297.833 342.136 291.146 348.823 282.89 348.823Z" fill="#66D6A0"/>
<path d="M74.7725 97.976H46.988C45.8941 97.976 45 97.0914 45 95.988C45 94.8941 45.8846 94 46.988 94H74.7725C75.8664 94 76.7605 94.8846 76.7605 95.988C76.7605 97.0819 75.8664 97.976 74.7725 97.976Z" fill="#66D6A0"/>
<path d="M74.7725 107.897H46.988C45.8941 107.897 45 107.012 45 105.909C45 104.815 45.8846 103.921 46.988 103.921H74.7725C75.8664 103.921 76.7605 104.806 76.7605 105.909C76.7605 107.003 75.8664 107.897 74.7725 107.897Z" fill="#66D6A0"/>
<path opacity="0.3" d="M273.575 165.627C273.575 166.465 272.9 167.141 272.061 167.141C271.223 167.141 270.547 166.465 270.547 165.627C270.547 164.788 271.223 164.112 272.061 164.112C272.892 164.112 273.575 164.788 273.575 165.627Z" fill="white"/>
<path opacity="0.3" d="M281.862 165.627C281.862 166.465 281.187 167.141 280.348 167.141C279.51 167.141 278.834 166.465 278.834 165.627C278.834 164.788 279.51 164.112 280.348 164.112C281.179 164.112 281.862 164.788 281.862 165.627Z" fill="white"/>
<path opacity="0.3" d="M289.784 165.627C289.784 166.465 289.109 167.141 288.27 167.141C287.432 167.141 286.756 166.465 286.756 165.627C286.756 164.788 287.432 164.112 288.27 164.112C289.109 164.112 289.784 164.788 289.784 165.627Z" fill="white"/>
<path d="M265.499 72.3864C265.487 72.7075 262.882 80.6011 262.693 80.4939C262.502 80.3895 244.341 75.5953 244.341 75.5953L246.997 65.2258L265.499 72.3864Z" fill="#66D6A0"/>
<path d="M244.017 111.124L246.343 112.417L247.763 110.548L250.242 112.137L251.604 110.484L253.817 111.883L255.534 109.969L257.911 110.935L257.769 113.429L244.462 115.167L244.017 111.124Z" fill="#06B25F"/>
<path d="M274.254 119.989L249.301 118.02L249.587 114.496L266.783 112.222L274.254 119.989Z" fill="#66D6A0"/>
<path d="M312.258 56.0988L310.692 70.5438L280.477 86.6512L273.238 78.1748L312.258 56.0988Z" fill="#66D6A0"/>
<path d="M283.344 100.439C283.105 100.221 275.66 96.4952 275.6 96.7042C275.54 96.9132 266.121 113.122 266.121 113.122L275.365 118.559L283.344 100.439Z" fill="#66D6A0"/>
<g filter="url(#filter0_d_198_599)">
<rect x="219.586" y="81.8921" width="58" height="57" rx="6" fill="#276ED8"/>
</g>
<path d="M239.329 119.818L226.053 112.638C225.195 112.141 224.766 111.373 224.766 110.335C224.766 109.251 225.217 108.483 226.12 108.031L239.329 100.783L239.329 103.425C239.329 103.606 239.262 103.854 239.126 104.17C238.991 104.441 238.788 104.644 238.517 104.78L229.101 109.928C228.74 110.199 228.74 110.47 229.101 110.741L239.329 116.228L239.329 119.818Z" fill="white"/>
<path d="M250.638 98.6157L253.28 98.6157L246.71 121.105C246.529 121.692 246.122 121.986 245.49 121.986L243.797 121.986L250.638 98.6157Z" fill="white"/>
<path d="M257.544 100.783L270.753 108.031C271.702 108.528 272.176 109.296 272.176 110.335C272.176 111.373 271.702 112.118 270.753 112.57L257.544 119.818L257.544 117.176C257.544 117.041 257.589 116.815 257.68 116.499C257.815 116.183 258.018 115.957 258.289 115.821L267.773 110.741C268.134 110.47 268.134 110.199 267.773 109.928L257.544 104.374L257.544 100.783Z" fill="white"/>
<path d="M265.337 71.6986C272.794 71.3432 286.9 91.4092 284.333 98.0452C281.991 104.095 278.133 104.206 275.633 102.708C271.65 100.316 277.529 95.6858 275.231 92.3389C272.933 88.9921 270.101 85.0199 267.897 82.1212C265.44 78.8905 259.184 82.995 258.162 78.4713C257.523 75.6313 258.845 72.009 265.337 71.6986Z" fill="#06B25F"/>
<rect x="253.588" y="81.8916" width="24" height="32" rx="6" fill="#276ED8"/>
<path d="M239.152 120.094L225.875 112.914C225.017 112.417 224.588 111.649 224.588 110.61C224.588 109.527 225.039 108.759 225.943 108.307L239.152 101.059L239.152 103.701C239.152 103.882 239.084 104.13 238.948 104.446C238.813 104.717 238.61 104.92 238.339 105.056L228.923 110.204C228.562 110.475 228.562 110.746 228.923 111.017L239.152 116.504L239.152 120.094Z" fill="white"/>
<path d="M250.461 98.8916L253.102 98.8916L246.532 121.381C246.351 121.968 245.945 122.261 245.313 122.261L243.619 122.261L250.461 98.8916Z" fill="white"/>
<path d="M257.367 101.059L270.576 108.307C271.524 108.804 271.998 109.572 271.998 110.61C271.998 111.649 271.524 112.394 270.576 112.846L257.367 120.094L257.367 117.452C257.367 117.317 257.412 117.091 257.502 116.775C257.638 116.458 257.841 116.233 258.112 116.097L267.595 111.017C267.956 110.746 267.956 110.475 267.595 110.204L257.367 104.649L257.367 101.059Z" fill="white"/>
<path d="M260.434 75.3513C259.917 76.6414 260.545 78.1109 261.838 78.6291C263.131 79.1473 264.602 78.523 265.119 77.2329C265.638 75.9397 265.009 74.4733 263.716 73.9551C262.424 73.4337 260.956 74.0593 260.434 75.3513Z" fill="#66D6A0"/>
<path d="M276.944 97.1994C276.427 98.4895 277.054 99.959 278.348 100.477C279.641 100.995 281.112 100.371 281.629 99.081C282.146 97.791 281.519 96.3214 280.225 95.8032C278.933 95.2819 277.462 95.9063 276.944 97.1994Z" fill="#66D6A0"/>
<path d="M230.173 92.6146L230.895 90.0605L233.225 90.3764L233.844 87.5017L235.981 87.7087L236.544 85.1574L239.114 85.2964L240.103 82.9351L238.233 81.2735L227.614 89.445L230.173 92.6146Z" fill="#06B25F"/>
<path d="M245.199 65.002L228.999 84.0119L231.708 86.3035L245.449 75.76L245.199 65.002Z" fill="#66D6A0"/>
<path d="M242.63 75.0965C240.022 73.6607 239.067 70.388 240.499 67.7854C241.93 65.1827 245.204 64.2356 247.812 65.6715C250.42 67.1074 251.375 70.38 249.944 72.9826C248.516 75.5843 245.243 76.5314 242.63 75.0965Z" fill="#06B25F"/>
<path d="M243.89 72.8025C242.668 72.1278 242.22 70.5969 242.893 69.3772C243.561 68.1585 245.097 67.7135 246.319 68.3882C247.542 69.0629 247.989 70.5938 247.316 71.8134C246.646 73.0304 245.114 73.4744 243.89 72.8025Z" fill="#66D6A0"/>
<rect x="274.588" y="94.8916" width="3" height="6" rx="1.5" fill="#276ED8"/>
<path d="M312.99 47.5903H392.859V49.4987H312.99V47.5903Z" fill="#66D6A0"/>
<path d="M388.572 44.9199H396.352V60.0622H388.572V44.9199Z" fill="#66D6A0"/>
<path d="M307.468 43.8916H315.248V59.0338H307.468V43.8916Z" fill="#66D6A0"/>
<path d="M394.316 56.1731L385.276 71.5978L312.992 69.7387L309.436 55.6509L394.316 56.1731Z" fill="#66D6A0"/>
<path d="M479.82 152.351C477.838 154.387 435.609 134.078 435.609 134.078L415.589 150.652L478.8 202.225L479.82 152.351Z" fill="#66D6A0"/>
<path d="M435.607 134.078L397.859 57.0073L385.276 71.5977L415.587 150.653L435.607 134.078Z" fill="#66D6A0"/>
<path d="M474.379 143.312V201.424C474.379 204.114 476.565 206.295 479.261 206.295H509.049C511.746 206.295 513.932 204.114 513.932 201.424V143.312C513.932 140.621 511.746 138.44 509.049 138.44H479.261C476.565 138.44 474.379 140.621 474.379 143.312Z" fill="#66D6A0"/>
<path d="M426.409 156.115C418.754 156.115 412.549 149.924 412.549 142.287C412.549 134.65 418.754 128.458 426.409 128.458C434.064 128.458 440.27 134.65 440.27 142.287C440.27 149.924 434.064 156.115 426.409 156.115Z" fill="#06B25F"/>
<path d="M382.64 65.4391C382.64 70.8457 387.032 75.2274 392.451 75.2274C397.87 75.2274 402.262 70.8457 402.262 65.4391C402.262 60.0326 397.87 55.6509 392.451 55.6509C387.032 55.6509 382.64 60.0326 382.64 65.4391Z" fill="#06B25F"/>
<path d="M511.271 137.304V206.242C511.271 209.363 513.651 211.892 516.588 211.892V131.654C513.651 131.654 511.271 134.183 511.271 137.304Z" fill="#06B25F"/>
<path d="M427.871 135.386C427.871 134.367 395.479 65.439 395.479 65.439L390.886 66.9302L418.943 139.455L427.871 135.386Z" fill="#06B25F"/>
<path d="M387.707 65.4325C387.707 68.0536 389.837 70.1755 392.461 70.1755C395.085 70.1755 397.215 68.0504 397.215 65.4325C397.215 62.8113 395.085 60.6895 392.461 60.6895C389.837 60.6895 387.707 62.8113 387.707 65.4325Z" fill="#66D6A0"/>
<path d="M303.209 63.2119C303.209 67.702 306.856 71.3447 311.36 71.3447C315.861 71.3447 319.512 67.7053 319.512 63.2119C319.512 58.7218 315.864 55.0791 311.36 55.0791C306.86 55.0791 303.209 58.7185 303.209 63.2119Z" fill="#06B25F"/>
<path d="M385.277 61.3955L317.602 60.686V63.9641L385.277 67.863V61.3955Z" fill="#06B25F"/>
<path d="M307.716 62.667C307.716 64.6739 309.345 66.2998 311.357 66.2998C313.368 66.2998 314.998 64.6739 314.998 62.667C314.998 60.6601 313.368 59.0342 311.357 59.0342C309.349 59.0342 307.716 60.6601 307.716 62.667Z" fill="#66D6A0"/>
<path d="M420.588 142.784C420.588 146.039 423.232 148.677 426.494 148.677C429.757 148.677 432.4 146.039 432.4 142.784C432.4 139.529 429.757 136.892 426.494 136.892C423.232 136.892 420.588 139.529 420.588 142.784Z" fill="#66D6A0"/>
<g filter="url(#filter1_d_198_599)">
<rect x="77" y="149" width="58" height="57" rx="6" fill="#06B25F"/>
</g>
<path d="M97.1299 165.525C96.9559 165.355 96.7168 165.261 96.4728 165.268C96.2271 165.274 95.9945 165.378 95.8292 165.555C90.431 171.365 93.3677 183.928 93.6756 185.17L88.2632 190.462C88.0946 190.627 88 190.85 88 191.083C88 191.316 88.0946 191.54 88.2632 191.705L91.5242 194.893C91.6997 195.063 91.9297 195.15 92.1598 195.15C92.3895 195.15 92.6199 195.064 92.795 194.893L98.2064 189.603C100.841 190.264 104.136 190.659 107.045 190.659C110.539 190.659 115.323 190.11 118.27 187.496C118.452 187.335 118.559 187.107 118.565 186.867C118.571 186.626 118.476 186.394 118.302 186.225L97.1299 165.525Z" fill="white"/>
<path d="M104.948 170.756C105.123 170.927 105.353 171.013 105.583 171.013C105.813 171.013 106.043 170.927 106.219 170.755L112.927 164.197C113.402 163.733 113.664 163.115 113.664 162.458C113.664 161.802 113.402 161.184 112.927 160.72C112.452 160.255 111.821 160 111.149 160C110.477 160 109.845 160.256 109.37 160.72L102.662 167.278C102.311 167.621 102.311 168.178 102.662 168.521L104.948 170.756Z" fill="white"/>
<path d="M123.307 170.868C122.832 170.404 122.2 170.148 121.528 170.148C120.856 170.148 120.224 170.403 119.75 170.868L113.041 177.427C112.872 177.591 112.777 177.815 112.777 178.048C112.777 178.281 112.872 178.504 113.041 178.669L115.327 180.904C115.502 181.075 115.732 181.161 115.963 181.161C116.192 181.161 116.423 181.076 116.598 180.904L123.307 174.345C124.288 173.386 124.288 171.826 123.307 170.868Z" fill="white"/>
<g filter="url(#filter2_d_198_599)">
<path d="M137.954 252.808C158.132 249.131 176.478 252.845 184.968 261.258C184.967 260.477 184.908 259.691 184.783 258.916C182.462 244.567 159.274 236.814 132.996 241.603C106.719 246.391 87.2936 261.91 89.6139 276.259C90.1531 279.594 91.8198 282.57 94.3913 285.116C94.3772 271.46 113.099 257.337 137.954 252.808Z" fill="#043072"/>
<path d="M185.758 261.134C185.76 274.794 167.045 288.918 142.193 293.448C132.551 295.206 122.491 295.501 112.952 293.49C109.053 292.668 105.22 291.443 101.693 289.614C100.138 288.806 98.6308 287.87 97.2218 286.837C95.91 285.877 93.3592 283.492 93.3392 281.64C93.3809 285.671 95.3207 289.707 97.5134 292.944C107.495 307.675 131.391 307.528 147.149 304.655C173.429 299.865 192.848 284.345 190.528 269.994C189.99 266.659 188.323 263.682 185.758 261.134Z" fill="#84B5FF"/>
<path d="M184.746 258.742C182.358 244.461 159.149 236.824 132.914 241.687C106.679 246.55 87.3427 262.074 89.7308 276.355C90.2858 279.674 91.9656 282.632 94.5475 285.158" stroke="#84B5FF" stroke-width="2" stroke-miterlimit="10"/>
<path d="M185.375 261.042C185.427 274.677 166.827 288.843 142.077 293.454C121.984 297.198 103.689 293.555 95.1996 285.187" stroke="#84B5FF" stroke-width="2" stroke-miterlimit="10"/>
<path d="M188.304 282.85C168.256 298.083 142.663 307.291 112.771 312.107C110.842 312.417 109.037 311.167 108.716 309.279L103.588 279.102C103.27 277.231 104.518 275.415 106.415 275.016C132.571 269.485 156.921 260.309 179.132 246.816C181.297 245.501 184.085 246.705 184.501 249.149L189.66 279.445C189.877 280.721 189.363 282.042 188.304 282.85Z" fill="#276ED8"/>
<path d="M193.651 285.581C173.605 300.812 129.213 320.125 129.213 320.125L110.761 311.833C109.661 311.326 109.421 309.953 109.364 308.748L108.914 281.831C108.594 279.954 109.855 278.142 111.758 277.742C137.748 272.244 160.392 260.328 182.472 246.946C182.757 246.77 183.121 246.787 183.38 246.993C186.007 249.065 200.422 257.777 200.982 259.716L195.002 282.182C195.225 283.458 194.712 284.779 193.651 285.581Z" fill="#276ED8"/>
<path opacity="0.21" d="M160.235 264.011C161.478 264.78 162.806 265.511 164.156 266.261C164.425 266.392 164.699 266.511 164.974 266.635C161.283 264.248 157.537 261.943 153.837 259.574C153.757 259.611 153.677 259.649 153.596 259.68C155.787 261.171 157.998 262.619 160.235 264.011Z" fill="white"/>
<path opacity="0.21" d="M182.405 264.981C173.285 268.719 164.171 272.496 154.885 275.792C148.278 278.137 141.688 279.81 134.974 281.691C132.383 282.417 128.01 283.584 125.41 285.781C129.12 287.991 132.838 290.187 136.569 292.358C137.741 293.043 136.658 294.881 135.486 294.197C131.634 291.957 127.807 289.691 123.978 287.414C123.696 287.877 123.494 288.37 123.383 288.897C128.128 291.828 132.878 294.757 137.785 297.427C138.98 298.079 137.891 299.918 136.701 299.265C134.738 298.197 132.813 297.077 130.891 295.946C131.159 296.347 131.426 296.748 131.678 297.157C133.697 300.422 135.27 303.983 136.484 307.655C136.618 307.607 136.748 307.561 136.883 307.514C138.63 306.803 140.444 306.243 142.161 305.723C147.074 304.236 151.926 303.099 156.654 301.089C157.424 300.744 158.189 300.4 158.954 300.062C167.691 296.118 176.171 291.636 184.664 287.192C187.33 285.523 189.957 283.794 192.561 282.03C193.105 280.077 193.662 278.127 194.231 276.187C194.897 273.299 195.628 270.423 196.39 267.557C196.637 264.859 196.82 262.151 196.997 259.444C196.583 259.16 196.17 258.876 195.763 258.597C191.563 261.196 186.893 263.139 182.405 264.981Z" fill="white"/>
<path d="M120.5 315.097L115.265 286.493C114.77 283.794 116.304 281.093 118.913 280.068L188.502 252.714C189.463 252.335 190.448 252.233 191.384 252.348C189.832 250.905 187.495 250.367 185.298 251.226L115.709 278.58C113.1 279.605 111.566 282.306 112.061 285.006L117.296 313.609C117.649 315.547 119.377 316.811 121.252 316.754C120.882 316.293 120.614 315.734 120.5 315.097Z" fill="#06B25F"/>
<path d="M202.193 292.823L133.19 319.971C129.605 321.384 125.672 319.231 125.039 315.516L120.787 290.522C120.273 287.505 122.165 284.552 125.171 283.679C148.628 276.864 171.271 267.954 193.174 257.154C196.83 255.351 201.151 257.455 201.82 261.388L206.036 286.164C206.507 288.969 204.903 291.757 202.193 292.823Z" fill="#84B5FF"/>
<path d="M174.623 273.107L147.972 283.713C146.777 284.189 145.475 283.438 145.312 282.181L145.275 281.889C145.156 280.969 145.707 280.07 146.592 279.748C156.093 276.265 164.966 272.978 173.167 269.477C174.347 268.976 175.663 269.674 175.869 270.917C176.028 271.841 175.503 272.757 174.623 273.107Z" fill="#06B25F"/>
<path d="M201.72 292.769L133.559 319.582C130.017 320.976 126.133 318.848 125.509 315.182L121.309 290.493C120.802 287.515 122.671 284.6 125.638 283.734C148.807 277.005 171.169 268.197 192.803 257.531C196.418 255.753 200.682 257.828 201.343 261.712L205.506 286.182C205.98 288.965 204.392 291.716 201.72 292.769Z" stroke="#1351AC" stroke-width="3" stroke-miterlimit="10"/>
<path d="M119.793 310.717C119.35 311.071 118.733 311.135 118.234 310.875L106.746 304.947L102.297 288.861C102.121 288.223 102.438 287.548 103.049 287.254C103.466 287.051 103.951 287.027 104.384 287.175L116.396 291.401C116.961 291.599 117.37 292.072 117.472 292.65L120.391 309.16C120.499 309.742 120.273 310.339 119.793 310.717Z" fill="#194484"/>
<path d="M118.018 310.91L106.29 306.537C105.654 306.3 105.198 305.762 105.083 305.112L102.216 288.934C102.125 288.421 102.646 288.009 103.144 288.191L114.885 292.573C115.477 292.795 115.911 293.304 116.018 293.91L118.905 310.197C118.997 310.687 118.497 311.085 118.018 310.91Z" fill="#194484"/>
<path d="M111.904 304.565L107.572 302.934C107.161 302.78 106.859 302.422 106.786 302.001L105.645 295.436C105.488 294.53 106.416 293.796 107.303 294.133L111.666 295.775C112.06 295.927 112.345 296.26 112.415 296.664L113.562 303.262C113.719 304.168 112.79 304.896 111.904 304.565Z" fill="#276ED8"/>
<path d="M111.326 305.011L106.994 303.379C106.582 303.226 106.281 302.867 106.208 302.447L105.067 295.881C104.91 294.975 105.838 294.242 106.725 294.578L111.088 296.221C111.482 296.372 111.767 296.705 111.837 297.109L112.984 303.708C113.135 304.609 112.206 305.343 111.326 305.011Z" fill="#06B25F"/>
</g>
<path d="M385.778 186H332.222C328.234 186 325 189.225 325 193.205V282.111V302.394C325 306.405 328.268 309.599 332.222 309.599H385.778C389.765 309.599 393 306.375 393 302.394V213.488V193.205C393 189.189 389.728 186 385.778 186Z" fill="#276ED8"/>
<path d="M389.5 195.819H328.502V299.78H389.5V195.819Z" fill="white"/>
<path d="M371.389 229L357.91 232.938L355.915 236.777L351.867 236.744L342 247.502L351.867 258.259L355.913 258.226L357.912 262.062L371.389 266L375 251.308L372.948 247.502L375 243.697L371.389 229ZM356.24 237.394L366.551 234.505L360.632 245.685H348.792L356.24 237.394ZM356.24 257.608L348.792 249.318H360.632L366.551 260.498L356.24 257.608ZM369.436 258.68L363.515 247.502L369.436 236.32L372.295 247.502L369.436 258.68Z" fill="#06B25F"/>
<path d="M371.575 192.552H346.523C346.233 192.552 345.998 192.318 345.998 192.028V191.773C345.998 191.484 346.232 191.249 346.523 191.249H371.575C371.865 191.249 372.1 191.483 372.1 191.773V192.028C372.099 192.317 371.865 192.552 371.575 192.552Z" fill="white"/>
<path d="M389.5 293.631H328.502V299.781H389.5V293.631Z" fill="#84B5FF"/>
<path d="M389.5 195.819H328.502V201.336H389.5V195.819Z" fill="#84B5FF"/>
<defs>
<filter id="filter0_d_198_599" x="213.586" y="75.8921" width="80" height="79" filterUnits="userSpaceOnUse" color-interpolation-filters="sRGB">
<feFlood flood-opacity="0" result="BackgroundImageFix"/>
<feColorMatrix in="SourceAlpha" type="matrix" values="0 0 0 0 0 0 0 0 0 0 0 0 0 0 0 0 0 0 127 0" result="hardAlpha"/>
<feMorphology radius="3" operator="dilate" in="SourceAlpha" result="effect1_dropShadow_198_599"/>
<feOffset dx="5" dy="5"/>
<feGaussianBlur stdDeviation="4"/>
<feColorMatrix type="matrix" values="0 0 0 0 0 0 0 0 0 0 0 0 0 0 0 0 0 0 0.2 0"/>
<feBlend mode="normal" in2="BackgroundImageFix" result="effect1_dropShadow_198_599"/>
<feBlend mode="normal" in="SourceGraphic" in2="effect1_dropShadow_198_599" result="shape"/>
</filter>
<filter id="filter1_d_198_599" x="71" y="143" width="80" height="79" filterUnits="userSpaceOnUse" color-interpolation-filters="sRGB">
<feFlood flood-opacity="0" result="BackgroundImageFix"/>
<feColorMatrix in="SourceAlpha" type="matrix" values="0 0 0 0 0 0 0 0 0 0 0 0 0 0 0 0 0 0 127 0" result="hardAlpha"/>
<feMorphology radius="3" operator="dilate" in="SourceAlpha" result="effect1_dropShadow_198_599"/>
<feOffset dx="5" dy="5"/>
<feGaussianBlur stdDeviation="4"/>
<feColorMatrix type="matrix" values="0 0 0 0 0 0 0 0 0 0 0 0 0 0 0 0 0 0 0.2 0"/>
<feBlend mode="normal" in2="BackgroundImageFix" result="effect1_dropShadow_198_599"/>
<feBlend mode="normal" in="SourceGraphic" in2="effect1_dropShadow_198_599" result="shape"/>
</filter>
<filter id="filter2_d_198_599" x="80.5352" y="235.219" width="134.549" height="98.2964" filterUnits="userSpaceOnUse" color-interpolation-filters="sRGB">
<feFlood flood-opacity="0" result="BackgroundImageFix"/>
<feColorMatrix in="SourceAlpha" type="matrix" values="0 0 0 0 0 0 0 0 0 0 0 0 0 0 0 0 0 0 127 0" result="hardAlpha"/>
<feOffset dy="4"/>
<feGaussianBlur stdDeviation="4"/>
<feColorMatrix type="matrix" values="0 0 0 0 0.0223125 0 0 0 0 0.00468749 0 0 0 0 0.225 0 0 0 0.25 0"/>
<feBlend mode="normal" in2="BackgroundImageFix" result="effect1_dropShadow_198_599"/>
<feBlend mode="normal" in="SourceGraphic" in2="effect1_dropShadow_198_599" result="shape"/>
</filter>
</defs>
</svg>
