<svg width="1600" height="656" viewBox="0 0 1600 656" fill="none" xmlns="http://www.w3.org/2000/svg">
<path d="M16.5699 193.763C-185.578 225.625 -439.391 293.811 -439.391 293.811L-378.135 1044.85C-378.135 1044.85 -185.053 1135.11 -23.3853 1128.46C244.246 1117.47 430.344 957.631 698.084 941.258C995.407 923.078 1141.76 1012.4 1439.09 994.702C1617.94 984.057 1892.24 932.436 1892.24 932.436L1810.48 0.000176596C1810.48 0.000176596 1727.19 41.8835 1664.51 59.3555C1521.96 99.0905 1424.45 57.0945 1271.16 72.4578C995.021 100.133 870.323 206.256 593.419 225.798C363.496 242.024 242.793 158.105 16.5699 193.763Z" fill="#194484" fill-opacity="0.07"/>
</svg>
