<svg width="1600" height="609" viewBox="0 0 1600 609" fill="none" xmlns="http://www.w3.org/2000/svg">
<path d="M291.359 98.7025C124.295 111.243 -92 207.069 -92 207.069L-92.0001 763.729C-92.0001 763.729 59.54 850.189 191.895 855.527C411.001 864.364 573.486 746.371 793.038 750.828C1036.85 755.778 1150.32 838.369 1394.11 843.714C1540.75 846.93 1768 823.073 1768 823.073L1768 0C1768 0 1697.25 88.6213 1644.95 98.7025C1525.99 121.629 1449.21 80.888 1323.11 83.2215C1095.96 87.425 987.149 165.688 759.908 163.207C571.222 161.146 478.319 84.6682 291.359 98.7025Z" fill="#194484"/>
</svg>
